{"title":"Baklava.2007.1080p.English.Subs.Hardcoded","uid":8469519,"size":4713124010,"categoryP":"video","categoryS":"hd___movies","magnet":"?xt=urn:btih:b11be044df454fede0890d891fa3d31c73fe9313&amp;dn=Baklava.2007.1080p.English.Subs.Hardcoded&amp;tr=udp%3A%2F%2Ftracker.openbittorrent.com%3A80&amp;tr=udp%3A%2F%2Fopen.demonii.com%3A1337&amp;tr=udp%3A%2F%2Ftracker.coppersurfer.tk%3A6969&amp;tr=udp%3A%2F%2Fexodus.desync.com%3A6969","seeders":0,"leechers":1,"uploader":"ivo_mitov","files":1,"time":1368451568,"description":"Downloaded from youtube, webm format - 1080p\nmedianinfo:\n\nComplete name                            : Baklava.2007.1080p.English.Subs.Hardcoded.webm\nFormat                                   : WebM\nFormat version                           : Version 2\nFile size                                : 4.39 GiB\nDuration                                 : 1h 46mn\nOverall bit rate mode                    : Variable\nOverall bit rate                         : 5 923 Kbps\nWriting application                      : google\nWriting library                          : google\n\nVideo\nID                                       : 1\nFormat                                   : VP8\nCodec ID                                 : V_VP8\nDuration                                 : 1h 46mn\nBit rate                                 : 5 488 Kbps\nWidth                                    : 1 920 pixels\nHeight                                   : 1 080 pixels\nDisplay aspect ratio                     : 16:9\nFrame rate mode                          : Constant\nFrame rate                               : 25.000 fps\nCompression mode                         : Lossy\nBits/(Pixel*Frame)                       : 0.106\nStream size                              : 4.07 GiB (93%)\nLanguage                                 : English\nDefault                                  : Yes\nForced                                   : No\n\nAudio\nID                                       : 2\nFormat                                   : Vorbis\nFormat settings, Floor                   : 1\nCodec ID                                 : A_VORBIS\nDuration                                 : 1h 46mn\nBit rate mode                            : Variable\nBit rate                                 : 192 Kbps\nChannel(s)                               : 2 channels\nSampling rate                            : 44.1 KHz\nCompression mode                         : Lossy\nStream size                              : 146 MiB (3%)\nDefault                                  : Yes\nForced                                   : No\n\nAudio: Bulgarian original\nSubtitles: English hardcoded","torrent":{"xt":"urn:btih:b11be044df454fede0890d891fa3d31c73fe9313","amp;dn":"Baklava.2007.1080p.English.Subs.Hardcoded","amp;tr":["udp%3A%2F%2Ftracker.openbittorrent.com%3A80","udp%3A%2F%2Fopen.demonii.com%3A1337","udp%3A%2F%2Ftracker.coppersurfer.tk%3A6969","udp%3A%2F%2Fexodus.desync.com%3A6969"],"infoHash":"b11be044df454fede0890d891fa3d31c73fe9313","infoHashBuffer":{"type":"Buffer","data":[177,27,224,68,223,69,79,237,224,137,13,137,31,163,211,28,115,254,147,19]},"announce":[],"urlList":[]}}